<?xml version="1.0" encoding="UTF-8"?>
<svg id="Layer_2" data-name="Layer 2" xmlns="http://www.w3.org/2000/svg" viewBox="0 0 160.78 156.35">
  <defs>
    <style>
      .cls-1 {
        fill: #141414;
      }
    </style>
  </defs>
  <g id="Layer_1-2" data-name="Layer 1">
    <path class="cls-1" d="m158.93.19c-8.44-2.26-27.13,16.19-34.4,21.64-14.05,11.06-26.63,23.73-36.66,38.56-7.72,9.31-12.33,20.56-18.38,30.86-2.59,3.56-4.74,7.23-6.26,11.34-1.78,3.6-4.94,16.87-10.65,11.71-2.14-2.2-4.46-4.24-6.63-6.42-11.36-10.9-20.36-23.92-30.49-35.92-1.76-2.26-5.26-2.39-7.19-1.53C.11,73.8-1.39,82.97,1.09,90.6c.91,3.76,6.22,4.25,8.53,7.14,9.73,10.06,19.15,20.54,27.29,31.96,4.46,6.24,6.34,13.77,9.23,20.78-3.01,1.14.5,3.89,1.86,4.87,2.94,2.16,6.19.14,9.28.27,5.51,1.97,6.96-5.12,10.31-7.86,1.77-1.5,1.22-3.85.95-5.79-.68-2.38,1.55-4.18.71-6.3-1.16-2.99-1.75-6.07-1.1-9.26,1.14-4.6,1.54-9.49,3.22-13.9,0,0,0,0,0,0,13.01-27.35,28.14-54.79,52.25-73.89,8.46-6.94,16.05-15.15,25.89-20.17,5.88-2.82,11.37-8.12,11.26-15.09.04-2.15-.54-2.95-1.84-3.17Z"/>
  </g>
</svg>