<?xml version="1.0" encoding="UTF-8"?>
<svg id="Layer_2" data-name="Layer 2" xmlns="http://www.w3.org/2000/svg" viewBox="0 0 180.42 156.43">
  <g id="Layer_1-2" data-name="Layer 1">
    <path d="m151.13,20.84c-11.73,10.73-25.45,18.75-35.38,30.3-1.72,2.07-6.2,1.43-7.32,4.57-3.91,4.3-9.41,6.56-13.07,11.18-1.19.08-.2-6.55-1.08-8.11-.29-4.45-.59-9.9-.73-14.44.51-2.39-1.79-4.28-.31-6.95-.75-4.21-.59-8.48-1.4-12.55-1.3-6.6-1.79-12.24-3.42-18.42-.66-6.28-9.6-9.76-11.14-1.86-.98,2.57-.81,4.8.68,7.03-.17,4.56.62,9.72.04,13.79-.3,12.9.15,25.1,1.89,37.66-.26,5.18,2.53,11.25.94,15.55-5.12,4.53-10.48,9.49-16.12,13.71-14.51,13.63-29.61,25.8-44.81,38.5-5.42,4.12-1.01,4.53-7.5,1.21-6.73-1.22-9.12,10.59-12.18,15.23-.92,1.52,1.51,3.68,2.35,5.05,1.87,2.55,4.65,5.11,8.24,3.76,20.46-12.56,37.33-29.51,55.25-44.98,2.82-.85,4.5-3.79,5.95-5.56,3.31-1.76,5.89-4.45,8.96-6.76,3.5-2.79,2.79-4.39,4.7.33.24,1.83-.43,4.36.58,6.43,4.43,12.22,5.54,25.54,10.26,37.05-.82,1.89.12,4.32,1.72,5.56.72.96-.44,1.96.35,3.2,1.65,1.62,4.22,3.43,6.29,4.7,3.12.78,7.71-.18,9.19-3.58,4.48-7.11-4.4-11.33-4.43-17.97-2.07-6.56-3.29-13.61-5.95-19.6,1.6-3.03-2.69-7.52-1.47-10.44-1.91-.97.41-3.81-1.52-4.54-1.06-2.31-1.29-6.17-1.59-8.74-1.26-3.09-2.84-6.71,1.37-8.28,4.82-4.76,9.99-8.99,15.22-13.3,12.85-10.36,26.65-22.24,39.73-32.72,8.55-7.05,15.16-16.95,23.63-22.9,8.16-23.67-21.7,2.41-27.89,6.89Zm-26.18,22.85c.99-1.14,2.3-3.08,3.45-3.32-1.24,1.19-2.47,2.38-3.45,3.32Z"/>
  </g>
</svg>